<?xml version="1.0" standalone="no"?><!DOCTYPE svg PUBLIC "-//W3C//DTD SVG 1.1//EN" "http://www.w3.org/Graphics/SVG/1.1/DTD/svg11.dtd"><svg t="1781588312143" class="icon" viewBox="0 0 1024 1024" version="1.1" xmlns="http://www.w3.org/2000/svg" p-id="1279" xmlns:xlink="http://www.w3.org/1999/xlink" width="200" height="200"><path d="M513.024 42.7008c25.9072 0 46.8992 17.5104 46.8992 39.0144v62.72c0 21.6064-20.992 39.0656-46.8992 39.0656-25.856 0-46.8992-17.4592-46.8992-39.168V81.8176c0-21.6064 21.0432-39.1168 46.8992-39.1168z m-0.8192 724.4288c138.496 0 250.7264-114.176 250.7264-254.8736 0-140.8-112.2304-254.9248-250.7264-254.9248s-250.7776 114.1248-250.7776 254.9248 112.2816 254.8224 250.7776 254.8224z m-42.496 172.032a42.8544 42.8544 0 0 0 43.3152 42.5984 41.8816 41.8816 0 0 0 42.0352-42.5984l4.864-59.0848c0.1536-21.6064-20.9408-39.0656-46.8992-39.0656-25.856 0-46.8992 17.4592-46.8992 39.0656l3.584 59.0848z m272.2304-141.4656l45.6704 45.568a40.3968 40.3968 0 0 0 57.0368-57.088l-45.568-45.6192a40.3456 40.3456 0 1 0-57.1392 57.1392zM239.872 181.248l45.6192 45.568A40.3968 40.3968 0 1 1 228.352 283.904l-45.568-45.568A40.448 40.448 0 0 1 239.872 181.248zM182.784 843.4176a40.3968 40.3968 0 0 0 57.088 0l45.6192-45.6704a40.448 40.448 0 0 0-57.1392-57.1904l-45.568 45.6704a40.448 40.448 0 0 0 0 57.1904zM787.6096 181.248a40.448 40.448 0 0 1 57.0368 57.088l-45.568 45.6704a40.3968 40.3968 0 0 1-57.1392-57.088l45.6704-45.6704z m53.3504 331.6736c0 25.856 17.5104 46.8992 39.1168 46.8992h62.5664c21.5552 0 39.0656-21.0432 39.0656-46.8992 0-25.9072-17.4592-46.8992-39.0656-46.8992H880.128c-21.6576 0-39.168 20.992-39.168 46.8992zM42.7008 513.024c0-25.9072 17.5104-46.9504 39.0144-46.9504h62.72c21.5552 0 39.0656 21.0944 39.0656 46.9504 0 25.856-17.5104 46.8992-39.168 46.8992H81.7664c-21.504 0-39.0656-20.992-39.0656-46.8992z" p-id="1280" fill="white"></path></svg>
